<mxfile host="app.diagrams.net" agent="Mozilla/5.0 (Windows NT 10.0; Win64; x64; rv:128.0) Gecko/20100101 Firefox/128.0" version="24.7.5">
  <diagram name="Page-1" id="CL8vFnOlZx-nKWmsa0s0">
    <mxGraphModel dx="1050" dy="530" grid="1" gridSize="10" guides="1" tooltips="1" connect="1" arrows="1" fold="1" page="1" pageScale="1" pageWidth="850" pageHeight="1100" math="0" shadow="0">
      <root>
        <mxCell id="0" />
        <mxCell id="1" parent="0" />
        <mxCell id="sbVek2iMUfPTCY3_KKDj-1" value="" style="rounded=1;whiteSpace=wrap;html=1;fillColor=#fa6800;strokeColor=#C73500;fontColor=#000000;" vertex="1" parent="1">
          <mxGeometry x="80" y="180" width="170" height="120" as="geometry" />
        </mxCell>
        <mxCell id="sbVek2iMUfPTCY3_KKDj-2" value="" style="rounded=1;whiteSpace=wrap;html=1;fillColor=#d5e8d4;strokeColor=#82b366;" vertex="1" parent="1">
          <mxGeometry x="330" y="180" width="170" height="120" as="geometry" />
        </mxCell>
        <mxCell id="sbVek2iMUfPTCY3_KKDj-3" value="" style="shape=cylinder3;whiteSpace=wrap;html=1;boundedLbl=1;backgroundOutline=1;size=15;fillColor=#dae8fc;strokeColor=#6c8ebf;" vertex="1" parent="1">
          <mxGeometry x="620" y="175" width="110" height="130" as="geometry" />
        </mxCell>
        <mxCell id="sbVek2iMUfPTCY3_KKDj-5" value="" style="endArrow=classic;startArrow=classic;html=1;rounded=0;" edge="1" parent="1">
          <mxGeometry width="50" height="50" relative="1" as="geometry">
            <mxPoint x="520" y="239.5" as="sourcePoint" />
            <mxPoint x="590" y="239.5" as="targetPoint" />
          </mxGeometry>
        </mxCell>
        <mxCell id="sbVek2iMUfPTCY3_KKDj-6" value="" style="endArrow=classic;startArrow=classic;html=1;rounded=0;" edge="1" parent="1">
          <mxGeometry width="50" height="50" relative="1" as="geometry">
            <mxPoint x="260" y="239.5" as="sourcePoint" />
            <mxPoint x="310" y="240" as="targetPoint" />
          </mxGeometry>
        </mxCell>
        <mxCell id="sbVek2iMUfPTCY3_KKDj-9" value="&lt;h1 align=&quot;center&quot; style=&quot;margin-top: 0px;&quot;&gt;Backend API&lt;/h1&gt;&lt;div align=&quot;center&quot;&gt;&lt;br&gt;&lt;/div&gt;&lt;div align=&quot;center&quot;&gt;Springboot Java&lt;br&gt;&lt;/div&gt;" style="text;html=1;whiteSpace=wrap;overflow=hidden;rounded=0;align=center;" vertex="1" parent="1">
          <mxGeometry x="330" y="190" width="170" height="90" as="geometry" />
        </mxCell>
        <mxCell id="sbVek2iMUfPTCY3_KKDj-10" value="&lt;h1 align=&quot;center&quot; style=&quot;margin-top: 0px;&quot;&gt;DB&lt;/h1&gt;&lt;p align=&quot;center&quot;&gt;PostgreSQL&lt;/p&gt;" style="text;html=1;whiteSpace=wrap;overflow=hidden;rounded=0;align=center;" vertex="1" parent="1">
          <mxGeometry x="635" y="220" width="80" height="70" as="geometry" />
        </mxCell>
        <mxCell id="sbVek2iMUfPTCY3_KKDj-11" value="&lt;h1 align=&quot;center&quot; style=&quot;margin-top: 0px;&quot;&gt;UI&lt;br&gt;&lt;/h1&gt;&lt;p align=&quot;center&quot;&gt;Web / Mobile App&lt;br&gt;&lt;/p&gt;&lt;p align=&quot;center&quot;&gt;Angular&lt;br&gt;&lt;/p&gt;" style="text;html=1;whiteSpace=wrap;overflow=hidden;rounded=0;align=center;" vertex="1" parent="1">
          <mxGeometry x="100" y="190" width="130" height="95" as="geometry" />
        </mxCell>
        <mxCell id="sbVek2iMUfPTCY3_KKDj-12" value="" style="rounded=1;whiteSpace=wrap;html=1;" vertex="1" parent="1">
          <mxGeometry x="600" y="370" width="170" height="100" as="geometry" />
        </mxCell>
        <mxCell id="sbVek2iMUfPTCY3_KKDj-13" value="&lt;b&gt;&lt;font style=&quot;font-size: 22px;&quot;&gt;AWS&lt;/font&gt;&lt;/b&gt;" style="text;html=1;align=center;verticalAlign=middle;whiteSpace=wrap;rounded=0;" vertex="1" parent="1">
          <mxGeometry x="655" y="405" width="60" height="30" as="geometry" />
        </mxCell>
        <mxCell id="sbVek2iMUfPTCY3_KKDj-14" value="" style="endArrow=classic;startArrow=classic;html=1;rounded=0;" edge="1" parent="1">
          <mxGeometry width="50" height="50" relative="1" as="geometry">
            <mxPoint x="684.5" y="365" as="sourcePoint" />
            <mxPoint x="685" y="310" as="targetPoint" />
          </mxGeometry>
        </mxCell>
      </root>
    </mxGraphModel>
  </diagram>
</mxfile>
